<svg id="Layer_1" data-name="Layer 1" xmlns="http://www.w3.org/2000/svg" xmlns:xlink="http://www.w3.org/1999/xlink" viewBox="0 0 209.29 195.87"><defs><style>.cls-1{fill:url(#radial-gradient);}</style><radialGradient id="radial-gradient" cx="282.48" cy="209.71" r="109.7" gradientUnits="userSpaceOnUse"><stop offset="0.08" stop-color="#dec16d"/><stop offset="0.63" stop-color="#a8945d"/><stop offset="1" stop-color="#7e6d28"/></radialGradient></defs><path class="cls-1" d="M328.23,274.44h34.22l-9.56,35.68H317.68c-21.1,0-38.91-8.07-50.14-22.71-11.82-15.41-15.06-36.13-9.1-58.34.36-1.36,9.49-35,15-55.16L277,160.59c8.56,1.32,15.76,5.55,20.35,12,5.17,7.24,6.81,16.81,4.64,26.91l-7.77,28.64c-3.38,12.59-1.49,24.39,5.29,33.24C306,269.79,316.2,274.44,328.23,274.44ZM374.8,137c-11.23-14.64-29-22.7-50.14-22.7H207.91l-.46,1.74c-16.33,61.5-26.63,100.18-29,108.89-2.16,10-.56,19.5,4.49,26.71,4.63,6.6,12,10.92,20.69,12.2,6.14-22.86,24.17-90.91,29.6-111.42l.65-2.45h80.22c12,0,22.23,4.65,28.7,13.09,6.79,8.84,8.67,20.65,5.29,33.23-.13.52-1.69,6.24-3.92,14.48l-3.85,14.16c-2.15,10-.56,19.5,4.5,26.71,4.62,6.6,11.95,10.92,20.68,12.2,6.89-25.61,18.32-68.23,18.39-68.5C389.86,173.07,386.62,152.35,374.8,137Z" transform="translate(-177.52 -114.25)"/></svg>